<svg id="visual" viewBox="0 0 900 450" width="900" height="450" xmlns="http://www.w3.org/2000/svg" xmlns:xlink="http://www.w3.org/1999/xlink" version="1.1"><rect x="0" y="0" width="900" height="450" fill="#e1bee7"></rect><path d="M0 430L30 419.2C60 408.3 120 386.7 180 382C240 377.3 300 389.7 360 396.7C420 403.7 480 405.3 540 407.5C600 409.7 660 412.3 720 414.5C780 416.7 840 418.3 870 419.2L900 420L900 451L870 451C840 451 780 451 720 451C660 451 600 451 540 451C480 451 420 451 360 451C300 451 240 451 180 451C120 451 60 451 30 451L0 451Z" fill="#fa7268"></path><path d="M0 410L30 406.3C60 402.7 120 395.3 180 392.7C240 390 300 392 360 398.5C420 405 480 416 540 419C600 422 660 417 720 412C780 407 840 402 870 399.5L900 397L900 451L870 451C840 451 780 451 720 451C660 451 600 451 540 451C480 451 420 451 360 451C300 451 240 451 180 451C120 451 60 451 30 451L0 451Z" fill="#e34c67"></path><path d="M0 438L30 432.7C60 427.3 120 416.7 180 416C240 415.3 300 424.7 360 430.8C420 437 480 440 540 439.7C600 439.3 660 435.7 720 435.5C780 435.3 840 438.7 870 440.3L900 442L900 451L870 451C840 451 780 451 720 451C660 451 600 451 540 451C480 451 420 451 360 451C300 451 240 451 180 451C120 451 60 451 30 451L0 451Z" fill="#c62368"></path></svg>